<svg xmlns="http://www.w3.org/2000/svg" viewBox="0 0 48 48" role="img" aria-label="530A Model logo">
  <defs>
    <linearGradient id="bg" x1="0" y1="0" x2="0" y2="1">
      <stop offset="0" stop-color="#163a5f"/>
      <stop offset="1" stop-color="#0b2036"/>
    </linearGradient>
    <linearGradient id="gold" x1="0" y1="1" x2="1" y2="0">
      <stop offset="0" stop-color="#9a7b2e"/>
      <stop offset="1" stop-color="#d8b96e"/>
    </linearGradient>
  </defs>
  <path d="M24 2l16 5v13c0 12-7 20-16 24C15 40 8 32 8 20V7z" fill="url(#bg)"/>
  <path d="M24 2l16 5v13c0 12-7 20-16 24C15 40 8 32 8 20V7z" fill="none" stroke="url(#gold)" stroke-width="1.3" opacity=".55"/>
  <polyline points="14,30 21,23 26,27 34,16" fill="none" stroke="url(#gold)" stroke-width="3" stroke-linecap="round" stroke-linejoin="round"/>
  <path d="M30 16h5v5" fill="none" stroke="url(#gold)" stroke-width="3" stroke-linecap="round" stroke-linejoin="round"/>
  <path d="M24 8.2l1.15 2.5 2.7.28-2.02 1.83.57 2.66L24 16.2l-2.4 1.27.57-2.66-2.02-1.83 2.7-.28z" fill="#d8b96e"/>
</svg>
